<?xml version="1.0" encoding="UTF-8"?>
<svg width="300px" height="269px" viewBox="0 0 300 269" version="1.1" xmlns="http://www.w3.org/2000/svg" xmlns:xlink="http://www.w3.org/1999/xlink">
    <title>869821C0-13B1-4F3C-9909-9901EAC7E6CC@3x</title>
    <defs>
        <polygon id="path-1" points="0 0 78 0 78 122 0 122"></polygon>
    </defs>
    <g id="Page-1" stroke="none" stroke-width="1" fill="none" fill-rule="evenodd">
        <g id="MDAA-3743-DT" transform="translate(-570.000000, -4668.000000)">
            <g id="Group-35" transform="translate(345.000000, 4597.000000)">
                <g id="Group-5" transform="translate(225.000000, 71.000000)">
                    <path d="M76.104568,46.3361115 C79.5168094,43.1804857 83.0297968,39.9317431 87.1912836,37.7728122 C80.5991939,35.9764334 73.8775736,32.040092 69.2064305,28.8961058 C64.8608071,25.9715476 61.5074047,23.2207214 60.2154855,22.128323 C54.9314005,28.6322748 47.4067753,33.0467021 41.947443,35.6294008 C36.0923229,38.3991953 30.7096084,40.0145136 27.1792655,40.7133209 C29.0549189,42.1587872 30.5766914,43.9448197 32.0578268,45.6838626 C33.6071139,47.5022273 35.070894,49.2201466 36.8767024,50.5263687 C39.0694093,52.1123725 42.8376482,52.2339417 46.8399733,47.8190832 L47.9350568,46.611151 L48.1022613,48.2462998 C48.317299,50.3556545 50.1612046,53.8992671 52.7649383,55.9456819 C53.8545189,56.8022704 55.5608513,57.7597356 57.5029631,57.4562437 C65.4195664,56.2177037 70.851384,51.1941371 76.104568,46.3361115 M51.8730399,57.122144 C49.4432836,55.2123868 47.6425548,52.2024716 46.9428358,49.8215261 C45.1476099,51.5265124 43.274073,52.5602816 41.3594758,52.9004167 C39.4330262,53.2418451 37.5404407,52.8297169 36.0313673,51.7381808 C34.0829059,50.3289266 32.4929818,48.4627102 30.9555471,46.6577094 C29.158628,44.5483546 27.3003301,42.3670068 24.8688805,40.9249892 L23,39.8166403 L25.1461437,39.5450496 C28.5833599,39.1105044 34.9214682,37.3141256 41.3328078,34.2813623 C46.8133052,31.6887484 54.4213209,27.2122431 59.5437044,20.6104325 L60.0173799,20 L60.5943412,20.5099871 C60.7484234,20.6457824 76.1405487,34.1334962 89.5825194,36.8140537 L92,37.2964506 L89.7150131,38.2327921 C84.9058735,40.204196 81.1075802,43.7172007 77.0857832,47.4367007 C71.6725909,52.4421612 66.075262,57.6187671 57.7243503,58.9249892 C57.4047569,58.9754275 57.0826237,59 56.7592206,59 C55.1201934,59 53.4489951,58.3611151 51.8730399,57.122144" id="Fill-95-Copy-2" fill="#3B4E6C"></path>
                    <path d="M189.824476,76.9527318 L141.605958,60.6507225 C141.139214,60.4930298 140.889402,59.987561 141.047403,59.5217284 L161.044363,0.604775127 C161.202791,0.138942547 161.708822,-0.110382301 162.175566,0.047310338 L210.394084,16.3493196 C210.860401,16.5070123 211.11064,17.0124811 210.952639,17.4778875 L190.955252,76.395267 C190.797251,76.8606734 190.29122,77.1104244 189.824476,76.9527318" id="Fill-9-Copy" fill="#3B4E6C"></path>
                    <path d="M177.253895,34 C177.174284,34 177.093807,33.988167 177.014628,33.9624608 L159.506576,28.3695325 C159.116739,28.245082 158.907326,27.8456163 159.039723,27.4779772 C159.171688,27.1099301 159.596139,26.9128495 159.985543,27.0373 L177.493163,32.6302283 C177.883432,32.7546788 178.092413,33.1541446 177.960448,33.5221916 C177.854876,33.8151604 177.564553,34 177.253895,34" id="Fill-11-Copy" fill="#FEFEFE"></path>
                    <path d="M195.256338,40 C195.176987,40 195.096774,39.9876266 195.017854,39.9607464 L181.504917,35.4320787 C181.116357,35.3019446 180.907629,34.8842353 181.039593,34.4998063 C181.171126,34.1149506 181.594187,33.9088694 181.982316,34.0390035 L195.494822,38.5676712 C195.883814,38.6978054 196.09211,39.1155146 195.960577,39.5003703 C195.855351,39.8067188 195.565979,40 195.256338,40" id="Fill-13-Copy" fill="#FEFEFE"></path>
                    <path d="M192.269637,48 C192.191705,48 192.112926,47.9872617 192.035417,47.9595889 L156.49593,35.4743125 C156.113894,35.3403409 155.909323,34.910314 156.038927,34.5141094 C156.168108,34.118344 156.58318,33.9061857 156.964792,34.0401573 L192.503856,46.5254337 C192.885892,46.6594053 193.090463,47.0894322 192.961282,47.4856368 C192.857938,47.8010192 192.573741,48 192.269637,48" id="Fill-15-Copy" fill="#FEFEFE"></path>
                    <path d="M189.269637,56 C189.191705,56 189.112926,55.9872617 189.035417,55.9600281 L153.49593,43.4743125 C153.113894,43.3403409 152.909323,42.910314 153.038927,42.5141094 C153.168108,42.118344 153.58318,41.9061857 153.964792,42.0401573 L189.503856,54.5254337 C189.885892,54.6594053 190.090463,55.0894322 189.961282,55.4856368 C189.857938,55.8010192 189.573741,56 189.269637,56" id="Fill-17-Copy" fill="#FEFEFE"></path>
                    <path d="M191.273215,31 C191.195665,31 191.117272,30.9878996 191.040143,30.9616125 L168.493713,23.4005267 C168.113549,23.2732638 167.90998,22.8647707 168.038528,22.4884063 C168.167497,22.1120419 168.580536,21.9109247 168.959857,22.0381877 L191.506287,29.5992735 C191.886451,29.7265364 192.09002,30.1350295 191.961472,30.5113939 C191.858634,30.8109833 191.575829,31 191.273215,31" id="Fill-19-Copy" fill="#FEFEFE"></path>
                    <path d="M284.104568,32.3361115 C287.516809,29.1804857 291.029797,25.9317431 295.191284,23.7728122 C288.599194,21.9764334 281.877574,18.040092 277.206431,14.8961058 C272.860807,11.9715476 269.507405,9.22072137 268.215486,8.12832303 C262.9314,14.6322748 255.406775,19.0467021 249.947443,21.6294008 C244.092323,24.3991953 238.709608,26.0145136 235.179266,26.7133209 C237.054919,28.1587872 238.576691,29.9448197 240.057827,31.6838626 C241.607114,33.5022273 243.070894,35.2201466 244.876702,36.5263687 C247.069409,38.1123725 250.837648,38.2339417 254.839973,33.8190832 L255.935057,32.611151 L256.102261,34.2462998 C256.317299,36.3556545 258.161205,39.8992671 260.764938,41.9456819 C261.854519,42.8022704 263.560851,43.7597356 265.502963,43.4562437 C273.419566,42.2177037 278.851384,37.1941371 284.104568,32.3361115 M259.87304,43.122144 C257.443284,41.2123868 255.642555,38.2024716 254.942836,35.8215261 C253.14761,37.5265124 251.274073,38.5602816 249.359476,38.9004167 C247.433026,39.2418451 245.540441,38.8297169 244.031367,37.7381808 C242.082906,36.3289266 240.492982,34.4627102 238.955547,32.6577094 C237.158628,30.5483546 235.30033,28.3670068 232.868881,26.9249892 L231,25.8166403 L233.146144,25.5450496 C236.58336,25.1105044 242.921468,23.3141256 249.332808,20.2813623 C254.813305,17.6887484 262.421321,13.2122431 267.543704,6.61043253 L268.01738,6 L268.594341,6.50998707 C268.748423,6.64578244 284.140549,20.1334962 297.582519,22.8140537 L300,23.2964506 L297.715013,24.2327921 C292.905873,26.204196 289.10758,29.7172007 285.085783,33.4367007 C279.672591,38.4421612 274.075262,43.6187671 265.72435,44.9249892 C265.404757,44.9754275 265.082624,45 264.759221,45 C263.120193,45 261.448995,44.3611151 259.87304,43.122144" id="Fill-95-Copy" fill="#3B4E6C"></path>
                    <path d="M264.7699,45 C264.946218,45 265.119924,44.9954967 265.289712,44.9860399 C265.703733,44.9626229 266.021106,44.5969577 265.998903,44.1686971 C265.976264,43.7404364 265.621016,43.413049 265.208736,43.4355653 C262.377634,43.59363 258.340604,42.1899619 254.401093,40.6493945 C253.750675,40.39496 253.093291,40.171598 252.398032,39.9351765 C250.044077,39.1358468 247.610453,38.3085968 245.241696,36.1893597 C244.928242,35.9088062 244.454142,35.9439317 244.182917,36.2686172 C243.911692,36.5928524 243.946085,37.0828077 244.259539,37.3633612 C246.855986,39.6865962 249.551258,40.6025606 251.929592,41.4104465 C252.608743,41.6414641 253.250454,41.8594222 253.869962,42.1016979 C257.739381,43.6147953 261.718945,45 264.7699,45" id="Fill-97-Copy" fill="#3B4E6C"></path>
                    <path d="M164.76738,140.07759 L167.292388,153.400764 L177.350821,144.510939 L164.76738,140.07759 Z M166.410589,156 L163,138 L180,143.989293 L166.410589,156 Z" id="Fill-3" fill="#3B4E6C" transform="translate(171.500000, 147.000000) scale(-1, 1) translate(-171.500000, -147.000000) "></path>
                    <path d="M224.000257,249 C224.551609,249 225,248.551041 225,247.999229 C225,247.448444 224.551609,247 224.000257,247 C223.448391,247 223,247.448444 223,247.999229 C223,248.551041 223.448391,249 224.000257,249" id="Fill-5" fill="#3B4E6C" transform="translate(224.000000, 248.000000) scale(-1, 1) translate(-224.000000, -248.000000) "></path>
                    <path d="M236,249 C236.551493,249 237,248.551041 237,247.999229 C237,247.448444 236.551493,247 236,247 C235.448507,247 235,247.448444 235,247.999229 C235,248.551041 235.448507,249 236,249" id="Fill-7" fill="#3B4E6C" transform="translate(236.000000, 248.000000) scale(-1, 1) translate(-236.000000, -248.000000) "></path>
                    <path d="M248.999743,249 C249.551609,249 250,248.551041 250,247.999229 C250,247.448444 249.551609,247 248.999743,247 C248.448391,247 248,247.448444 248,247.999229 C248,248.551041 248.448391,249 248.999743,249" id="Fill-9" fill="#3B4E6C" transform="translate(249.000000, 248.000000) scale(-1, 1) translate(-249.000000, -248.000000) "></path>
                    <path d="M127.338285,57 C127.222148,57 127.105394,56.9713855 126.998524,56.9106526 C126.44564,56.5970608 125.92179,56.1935377 125.367053,55.7660718 C123.837511,54.5882048 122.104729,53.2532498 119.024023,53.2532498 L119.002402,53.2532498 C116.845846,53.2573376 115.549194,54.118693 114.177177,55.0302699 C112.727942,55.9926521 111.229287,56.9883206 108.755209,57 C108.741618,57 108.728028,57 108.714437,57 C106.363291,57 104.799155,56.0364498 103.286291,55.1038501 C101.707329,54.1309564 100.214234,53.2135399 97.7679542,53.2509139 C95.3395894,53.2894559 94.0169923,54.1922732 92.616559,55.1476478 C91.2822247,56.0580567 89.9021771,57 87.6609897,57 L87.6609897,57 C87.295901,57 87,56.7202785 87,56.3751523 C87,56.0300262 87.295901,55.7503046 87.6609897,55.7503046 C89.4753137,55.7503046 90.572433,55.0016554 91.8425216,54.1344602 C93.2769309,53.1557269 94.902842,52.0461843 97.7457153,52.0012186 C100.600944,51.9580048 102.410326,53.0722192 104.00782,54.0567922 C105.421226,54.9274912 106.756178,55.7503046 108.715673,55.7503046 C108.726175,55.7503046 108.737294,55.7503046 108.748414,55.7503046 C110.807983,55.7403772 112.075601,54.8988767 113.41673,54.0077388 C114.896235,53.0249176 116.426395,52.0082262 118.999931,52.0029705 C119.007962,52.0029705 119.015992,52.0029705 119.024023,52.0029705 C122.575453,52.0029705 124.585603,53.5522423 126.202247,54.7972659 C126.719302,55.1955333 127.207322,55.5716099 127.679281,55.8390681 C127.991862,56.0165949 128.09379,56.400847 127.905377,56.6963357 C127.781827,56.8919656 127.562527,57 127.338285,57" id="Fill-11" fill="#3B4E6C" transform="translate(107.500000, 54.500000) scale(-1, 1) translate(-107.500000, -54.500000) "></path>
                    <path d="M202.564841,116 C202.554826,116 202.545479,116 202.535464,116 C202.23969,116 202,115.791981 202,115.536002 C202,115.280023 202.240358,115.072582 202.536132,115.072582 C202.540805,115.07027 202.555494,115.072582 202.564841,115.072582 C203.876795,115.072582 205.180736,115.048313 206.440612,115.000353 C206.735051,114.99053 206.986759,115.186992 206.999444,115.442971 C207.012798,115.69895 206.78379,115.915637 206.488016,115.926615 C205.212116,115.975153 203.892151,116 202.564841,116" id="Fill-13" fill="#3B4E6C" transform="translate(204.500000, 115.500000) scale(-1, 1) translate(-204.500000, -115.500000) "></path>
                    <path d="M206.123477,57.2320956 C206.1135,57.2320956 206.1029,57.2320956 206.092923,57.2314723 C203.548174,57.0781615 201.113171,57.0002597 198.855259,57.0002597 L198.799139,57.0002597 C198.522278,57.0002597 198.29842,56.7765256 198.29842,56.4998182 C198.29842,56.2237341 198.522278,56 198.799139,56 L198.855259,56 C201.133125,56 203.588705,56.0779018 206.152785,56.2324591 C206.429022,56.2492859 206.639162,56.4861075 206.622326,56.7621916 C206.606737,57.0276811 206.385996,57.2320956 206.123477,57.2320956 M184.246482,58.4785251 C184.022009,58.4785251 183.817481,58.3264607 183.761361,58.0983641 C183.69464,57.8303817 183.858636,57.5592833 184.126767,57.4932225 C186.296757,56.9572579 188.754207,56.5608933 191.431151,56.3147234 C191.706765,56.2897949 191.950577,56.4923397 191.97552,56.7671774 C192.001086,57.0420151 191.798428,57.285692 191.522815,57.3112438 C188.895756,57.5524279 186.48819,57.9400675 184.366838,58.4641911 C184.32693,58.4741626 184.286399,58.4785251 184.246482,58.4785251 M220.70668,58.713477 C220.684232,58.713477 220.661784,58.7122306 220.639336,58.7091145 C218.103316,58.3663464 215.659584,58.072189 213.376106,57.8359907 C213.101116,57.8073228 212.900953,57.5617762 212.929637,57.2869385 C212.958321,57.0121008 213.204627,56.812672 213.478994,56.8407167 C215.773072,57.0787847 218.227405,57.3735653 220.773401,57.7175798 C221.047144,57.7549727 221.239201,58.0067515 221.202411,58.2803428 C221.168115,58.5314983 220.95361,58.713477 220.70668,58.713477 M172.224873,66.1216307 C172.140069,66.1216307 172.054018,66.1004414 171.974826,66.0549468 C171.735378,65.9172163 171.653692,65.6112179 171.791499,65.3719034 C172.98624,63.301584 174.799553,61.551597 177.181553,60.1705531 C177.420377,60.0321994 177.726545,60.1132173 177.865599,60.3525318 C178.004029,60.5912231 177.922966,60.8972215 177.683519,61.0361984 C175.454915,62.3281226 173.764443,63.9553363 172.658871,65.8717216 C172.565961,66.0318878 172.397599,66.1216307 172.224873,66.1216307 M172.177483,80.150818 C172.018475,80.150818 171.861338,80.0747858 171.764686,79.933316 C171.059439,78.9062581 170.586157,77.7314983 170.358557,76.4433134 C170.124722,75.1177357 170.003752,73.8376526 170.000005,72.6385874 C169.998763,72.3625032 170.221998,72.1381459 170.498859,72.1368995 L170.500106,72.1368995 C170.775719,72.1368995 170.999577,72.3600104 171.000825,72.6354713 C171.004566,73.7772007 171.119925,74.9999481 171.344406,76.2694365 C171.547063,77.4161516 171.966096,78.4587899 172.59028,79.367437 C172.74617,79.5949104 172.688178,79.9065178 172.460579,80.0629447 C172.373904,80.1221501 172.275382,80.150818 172.177483,80.150818 M250.994871,81.3168528 C250.731728,81.3168528 250.510988,81.1105687 250.496022,80.844456 C250.480433,80.5683719 250.69182,80.3321735 250.968058,80.3172163 C253.580775,80.1720073 256.053191,80.0835108 258.316091,80.0542184 C258.589211,80.0535965 258.819304,80.2717216 258.823078,80.5478058 C258.826163,80.8238899 258.605423,81.0507401 258.329186,81.0544794 C256.080004,81.0837704 253.62193,81.1716437 251.023554,81.3162296 C251.014201,81.3162296 251.004224,81.3168528 250.994871,81.3168528 M272.936084,81.9487925 C272.908647,81.9487925 272.881211,81.9462997 272.853151,81.9419372 C270.692514,81.5810958 268.260006,81.3255778 265.62297,81.1834848 C265.346733,81.1685277 265.135346,80.9329525 265.150311,80.6574916 C265.165277,80.3814074 265.402853,80.1695144 265.676596,80.1844716 C268.351046,80.3290574 270.820968,80.5883147 273.01777,80.9553882 C273.29089,81.0008829 273.47484,81.2588938 273.42932,81.5312386 C273.388165,81.7755388 273.176155,81.9487925 272.936084,81.9487925 M236.384231,82.5022072 C236.130442,82.5022072 235.91282,82.3096339 235.887254,82.051623 C235.859817,81.7767853 236.060603,81.5318619 236.335593,81.5044404 C239.02002,81.2370813 241.409503,81.0170865 243.640601,80.8319917 C243.915591,80.809556 244.157533,81.0133472 244.180605,81.2888081 C244.203676,81.564269 243.998525,81.8060763 243.723535,81.8285121 C241.497425,82.0129836 239.113554,82.2329784 236.43474,82.4997144 C236.417903,82.501584 236.401067,82.5022072 236.384231,82.5022072 M221.798534,84.0558816 C221.545992,84.0558816 221.328993,83.8658011 221.301557,83.6090366 C221.271626,83.3348221 221.470541,83.0880291 221.744908,83.0581148 C222.869187,82.9365879 223.997831,82.8138146 225.128969,82.6904181 C226.429716,82.5489483 227.734204,82.4068554 229.038692,82.2660088 C229.311811,82.2360945 229.560612,82.4349 229.589919,82.7097377 C229.61985,82.9845754 229.420934,83.2307453 229.145944,83.2606596 C227.841456,83.4015061 226.537592,83.5435991 225.236845,83.6850688 C224.105707,83.8084653 222.977063,83.9312386 221.852784,84.0527655 C221.834701,84.0546352 221.815994,84.0558816 221.798534,84.0558816 M207.204731,85.4905219 C206.9472,85.4905219 206.727707,85.2929629 206.706506,85.0312127 C206.684058,84.756375 206.889209,84.5145676 207.164199,84.4921319 C209.356637,84.3126461 211.742378,84.0932745 214.456736,83.8215528 C214.731103,83.7941314 214.977409,83.9948065 215.004846,84.2696442 C215.032282,84.544482 214.831496,84.7894053 214.556506,84.81745 C211.835913,85.0891716 209.444559,85.3091665 207.245886,85.4892755 C207.232167,85.4898987 207.218449,85.4905219 207.204731,85.4905219 M185.246058,85.772215 C185.227351,85.772215 185.208644,85.7709686 185.189937,85.7690989 C182.359597,85.4543755 179.915241,84.9358608 177.924214,84.2266424 C177.663565,84.1337834 177.527629,83.8477279 177.62054,83.5878473 C177.71345,83.3273435 177.999664,83.1914827 178.259689,83.2843417 C180.178384,83.9673851 182.547289,84.469073 185.300931,84.7750714 C185.575297,84.8056089 185.77359,85.052402 185.743035,85.3272397 C185.714351,85.5827577 185.497352,85.772215 185.246058,85.772215 M193.23137,86.1604778 C193.005641,86.1604778 192.781783,86.1598546 192.558548,86.1586082 C192.282311,86.1567385 192.0597,85.9311348 192.061559,85.6550506 C192.062818,85.3802129 192.286676,85.1583485 192.561666,85.1583485 C192.562913,85.1583485 192.56416,85.1583485 192.564784,85.1583485 C194.808354,85.1726824 197.180377,85.1153467 199.865427,84.9819787 C200.141664,84.9695144 200.376123,85.1814074 200.389841,85.4568683 C200.403559,85.7329525 200.190925,85.9679044 199.914688,85.9816152 C197.477191,86.1018956 195.290989,86.1604778 193.23137,86.1604778 M286.157431,87.6935861 C286.027731,87.6935861 285.897407,87.6431057 285.799508,87.5427681 C284.316058,86.0221241 282.3057,84.7569982 279.824554,83.7816671 C279.567647,83.6807063 279.441064,83.3902882 279.542081,83.1335238 C279.643721,82.8761361 279.933677,82.7502467 280.191207,82.8512075 C282.804548,83.8782654 284.932759,85.2219164 286.515978,86.8441444 C286.709282,87.0417035 286.704917,87.3582965 286.507249,87.5514931 C286.409973,87.6462218 286.284014,87.6935861 286.157431,87.6935861 M289.978608,101.101428 C289.931841,101.101428 289.883827,101.094573 289.835813,101.080239 C289.5708,101.001714 289.419898,100.723137 289.499091,100.458271 C289.830825,99.3427162 289.999186,98.1984939 289.999186,97.0586341 C289.999186,95.877019 289.818977,94.6910413 289.462924,93.5324851 C289.381861,93.268242 289.530269,92.9890418 289.794658,92.9080239 C290.058424,92.827006 290.339026,92.9753311 290.420089,93.2395741 C290.804826,94.492859 291,95.7779278 291,97.0586341 C291,98.2950922 290.81792,99.5352895 290.458126,100.74308 C290.393899,100.960582 290.19436,101.101428 289.978608,101.101428 M280.365804,111.649961 C280.188089,111.649961 280.015987,111.555232 279.924947,111.387588 C279.793999,111.144534 279.884416,110.841028 280.127604,110.70953 C282.39861,109.483043 284.329153,108.052766 285.866229,106.459205 C286.057662,106.2604 286.37443,106.254168 286.57397,106.446118 C286.772885,106.637445 286.778497,106.954038 286.587064,107.152843 C284.978279,108.821189 282.965427,110.314412 280.60338,111.590132 C280.52793,111.630641 280.446243,111.649961 280.365804,111.649961 M266.446693,116 C266.203504,116 265.990247,115.822384 265.952833,115.574344 C265.911055,115.301376 266.09937,115.046481 266.372489,115.004726 C268.882319,114.623942 271.263696,114.096079 273.449898,113.436095 C273.714287,113.3557 273.993642,113.505895 274.073458,113.770138 C274.153897,114.034381 274.003619,114.313581 273.73923,114.393352 C271.507508,115.067048 269.079364,115.605505 266.522767,115.993768 C266.497201,115.99813 266.472259,116 266.446693,116" id="Fill-15" fill="#3B4E6C" transform="translate(230.500000, 86.000000) scale(-1, 1) translate(-230.500000, -86.000000) "></path>
                    <path d="M233.459397,60 C233.430405,60 233.400738,59.9968565 233.370397,59.9913553 C231.970662,59.7217966 230.690268,59.4805298 229.457072,59.253409 C229.161752,59.1991829 228.960152,58.876184 229.006675,58.5327521 C229.053198,58.1885343 229.329639,57.9535546 229.625633,58.0077807 C230.861527,58.2349016 232.144617,58.4769543 233.547049,58.7465129 C233.841695,58.8038826 234.041272,59.1284532 233.992726,59.4718851 C233.9489,59.780738 233.719657,60 233.459397,60" id="Fill-17" fill="#3B4E6C" transform="translate(231.500000, 59.000000) scale(-1, 1) translate(-231.500000, -59.000000) "></path>
                    <polygon id="Fill-19" fill="#FEFEFE" transform="translate(52.500000, 77.500000) scale(-1, 1) translate(-52.500000, -77.500000) " points="65 79.1277597 64.516272 75 40.1912119 75.6213053 40 80"></polygon>
                    <polygon id="Fill-21" fill="#FEFEFE" transform="translate(209.000000, 173.500000) scale(-1, 1) translate(-209.000000, -173.500000) " points="221 172.803709 219.643216 168 197 173.932093 198.134038 179"></polygon>
                    <path d="M63.6497957,75.6477576 C63.6497957,75.6477576 63.632386,72.4882692 63.7262743,70.1898877 C63.8201627,67.8915061 66.8183724,64.9377021 68.2913626,61.0435368 C69.3347048,58.2847241 69.7363729,53.4344723 65.7974142,51.5197833 C66.9309141,50.2322116 66.2537987,46.0851865 61.4990684,46.3625774 C62.7109122,45.0756347 61.4238333,41.8123606 57.7422905,42.4721861 C57.7422905,42.4721861 58.1638554,40.7191512 56.3339651,39.7077123 C54.5040747,38.6969025 51.0861654,38.924602 48.6742916,39.4290635 C47.0651322,39.7655807 45.9552599,40.0159244 45.3160729,41.7349931 C44.7036223,40.8751442 43.5377901,40.4914516 41.9298742,40.8883533 C39.5913701,41.4651502 36.1181226,49.1993866 36.0173947,51.1348327 C35.7773887,55.759272 38.0798297,60.8648996 39.2954041,63.9023611 C40.5116004,66.9391937 41.268925,70.5880474 41.3932805,76 L63.6497957,75.6477576 Z" id="Fill-23" fill="#F7A588" transform="translate(52.500000, 57.500000) scale(-1, 1) translate(-52.500000, -57.500000) "></path>
                    <path d="M59.9641842,54 C59.6935548,54 59.4397618,53.8382831 59.3393671,53.5758745 C59.3150478,53.5124083 58.7488463,51.9941001 59.133589,49.695279 C59.316295,48.6041476 59.7004141,47.3500787 60.0396361,46.2430807 C60.350174,45.2294514 60.7018674,44.080346 60.6638297,43.720297 C60.631404,43.4163913 60.5628113,43.1460494 60.4592987,42.9165945 C60.3102655,42.5864479 60.4630401,42.2013786 60.8003915,42.0555282 C61.1371193,41.9102881 61.5312155,42.0598 61.6802487,42.3893363 C61.8398826,42.743893 61.9446424,43.1460494 61.9907865,43.584821 C62.0537671,44.1767659 61.789997,45.0774985 61.3179545,46.618386 C60.9905803,47.6869381 60.6189326,48.8982893 60.4505687,49.9064264 C60.1281831,51.834214 60.5846363,53.1059801 60.5890013,53.1181852 C60.7180802,53.4556548 60.5428571,53.8321806 60.1980229,53.9585028 C60.1207002,53.9865744 60.0421304,54 59.9641842,54" id="Fill-25" fill="#CD5649" transform="translate(60.500000, 48.000000) scale(-1, 1) translate(-60.500000, -48.000000) "></path>
                    <path d="M42.69314,60 C42.0118087,60 41.3408468,59.8285977 40.7601598,59.5403026 C39.472523,58.9007237 38.4270424,57.4059502 39.3529698,55.1292672 C39.7311483,54.1989705 40.9773075,52.7780877 42.6967998,50.8726755 C43.1896518,50.3269741 43.6550554,49.8109502 44.0033456,49.3978888 C45.3031817,47.8582963 47.6966857,46.8462353 52.0054809,46.0122389 C52.3598708,45.9431934 52.7020614,46.1733449 52.7709874,46.5246288 C52.8399135,46.8759127 52.6093466,47.2162947 52.2549568,47.2847345 C48.3176305,48.0466571 46.0808875,48.9551499 45.0036887,50.2306739 C44.6419793,50.6594825 44.1692561,51.18338 43.6690846,51.7381663 C42.4942913,53.0397337 40.8852027,54.8228022 40.563141,55.6144023 C40.0519901,56.872362 40.3362339,57.8801834 41.3438967,58.3810658 C41.6848673,58.5500455 43.4470572,59.3137851 44.6492989,57.7124151 C47.0190142,54.4830259 47.8613764,54.0766268 49.7053016,53.1875152 L49.7492191,53.166317 C51.6114433,52.2681204 55.9848948,51.0422608 56.1703243,50.9901739 C56.5167846,50.8938736 56.8778841,51.0943477 56.9754786,51.4389693 C57.073073,51.7835909 56.8705645,52.1415371 56.5241042,52.238443 C56.4795767,52.2505562 52.0768469,53.4848951 50.3195367,54.3322161 L50.2756192,54.3534143 C48.5341682,55.1934673 47.8827252,55.5072002 45.7002692,58.481 C44.8853555,59.5669518 43.7758285,60 42.69314,60" id="Fill-27" fill="#CD5649" transform="translate(48.000000, 53.000000) scale(-1, 1) translate(-48.000000, -53.000000) "></path>
                    <path d="M50.309553,56 C49.3739827,56 48.4711852,55.654658 47.8212946,54.990868 C46.8412028,53.9909043 46.731754,52.5844762 47.5281946,51.229391 L47.7235946,50.8968847 C49.3950067,48.0455213 51.2816062,44.9270527 52.5226436,44.0028809 C53.5744646,43.2199021 54.7864393,43.0059734 56.9865445,42.6184569 C57.849149,42.466262 58.921994,42.2773935 60.2032245,42.0139557 C60.5606334,41.9399975 60.9112403,42.1673731 60.9860612,42.5212722 C61.0602638,42.8745601 60.8308543,43.2211245 60.472827,43.2944715 C59.1730459,43.5615767 58.0896889,43.75289 57.2184275,43.9063074 C55.1543602,44.2699862 54.1179982,44.4527423 53.3184658,45.0480752 C52.1887322,45.8897317 49.9459606,49.7141648 48.8681687,51.5527288 L48.6727687,51.8864575 C48.1768484,52.7299477 48.2120946,53.5092592 48.7717054,54.0807543 C49.3374998,54.6577505 50.4622865,54.9486935 51.5178176,54.3863667 C51.8393619,54.2146126 52.240674,54.3338014 52.4144316,54.6516382 C52.5875709,54.9694751 52.4669917,55.36616 52.1454474,55.5379141 C51.5617208,55.8484163 50.9285258,56 50.309553,56" id="Fill-29" fill="#CD5649" transform="translate(54.000000, 49.000000) scale(-1, 1) translate(-54.000000, -49.000000) "></path>
                    <path d="M45.6332079,62 C44.7131837,62 43.6539161,61.5286214 42.9176425,60.7478413 C42.0440328,59.8215349 41.7782622,58.6206267 42.1889986,57.4532529 C42.3129825,57.1001935 42.7008296,56.9148056 43.0556143,57.0381866 C43.410399,57.1615676 43.5973286,57.5481613 43.4733447,57.900588 C43.1643387,58.7781747 43.5401053,59.4292467 43.9095137,59.8209022 C44.5109946,60.4586869 45.4170308,60.7465758 45.8862622,60.6156022 C47.1985841,60.2498883 48.0931757,59.567813 49.5765318,58.4384025 C49.9694654,58.1391246 50.4158075,57.7993523 50.9149222,57.4317403 C51.2169342,57.2090218 51.6429302,57.2722941 51.8667371,57.5728375 C52.0899081,57.8733809 52.0263266,58.2973053 51.7243145,58.5200238 C51.2341012,58.8813086 50.7928457,59.2172845 50.4030912,59.5140315 C48.8459805,60.6997543 47.8178678,61.4830653 46.2537632,61.9196442 C46.058568,61.9740584 45.8500208,62 45.6332079,62" id="Fill-31" fill="#CD5649" transform="translate(47.000000, 59.500000) scale(-1, 1) translate(-47.000000, -59.500000) "></path>
                    <path d="M56.3621158,65 L56.3603274,65 C56.0080086,64.9987298 55.7230536,64.6938796 55.7242459,64.3185328 C55.7284188,62.843185 54.6738469,60.3510348 53.2562256,59.2243594 C52.9742513,58.9995324 52.9158296,58.5740124 53.1268632,58.2729728 C53.3373007,57.9725684 53.7373107,57.9103281 54.019285,58.1351551 C55.8083016,59.5577893 57.0047549,62.4830807 57,64.3223435 C56.9987935,64.6970551 56.7138385,65 56.3621158,65" id="Fill-33" fill="#CD5649" transform="translate(55.000000, 61.500000) scale(-1, 1) translate(-55.000000, -61.500000) "></path>
                    <path d="M63.7981278,81 C63.7869485,81 63.7757692,81 63.7645899,80.9993645 C63.3241261,80.9841126 62.9827852,80.6670003 63.000672,80.2920579 L63.2563051,75.044135 L65.1813781,75.0002858 C65.6196062,74.9894824 65.9877773,75.2862589 65.9997019,75.6618368 C66.0116265,76.0374147 65.6643233,76.3500785 65.2238594,76.359611 L64.7886126,76.3697789 L64.594093,80.3479815 C64.5762061,80.714027 64.2229407,81 63.7981278,81" id="Fill-35" fill="#919090" transform="translate(64.500000, 78.000000) scale(-1, 1) translate(-64.500000, -78.000000) "></path>
                    <path d="M42.2197128,81 C41.8279645,81 41.490828,80.7309656 41.4464104,80.3667037 L40.9694678,76.4603774 L40.8005355,76.4643729 C40.3731075,76.4783574 40.0119418,76.1647059 40.0002913,75.7711432 C39.9886407,75.3775805 40.3279618,75.0499445 40.7583024,75.0392897 L42.3595189,75 L42.9951997,80.2082131 C43.0425299,80.599778 42.7345196,80.9520533 42.3070917,80.9953385 C42.2779654,80.9986681 42.2488391,81 42.2197128,81" id="Fill-37" fill="#919090" transform="translate(41.500000, 78.000000) scale(-1, 1) translate(-41.500000, -78.000000) "></path>
                    <path d="M234.879518,174 C233.279121,171.25642 229.864357,168.915504 224.238568,169.018497 C217.385892,169.144446 208.835844,167.671524 206.686758,165.532252 C206.278212,165.125864 205.982909,164.666119 205.884683,164.270279 C203.901392,163.633709 202.284728,163.042431 201.491412,162.47597 C200.00238,161.413779 198.856826,159.340893 200.803204,157.655161 C200.803204,157.655161 198.654117,156.540232 199.048273,155.030705 C199.441803,153.520557 200.57109,151.878255 203.738724,152.967125 C203.368343,151.069203 204.309937,149.17066 206.882584,149.702997 C209.392042,150.222304 213.267905,152.133876 217.078701,153.224607 C220.258223,154.134171 223.081753,155.129354 227.593896,154.480376 C228.954045,154.284937 229.327555,152.514205 228.162606,151.791394 C227.694624,151.501028 227.264182,151.244787 226.979514,151.049349 C224.054003,149.040368 219.884713,146.241569 222.225872,143.965179 C224.033357,142.207476 226.433952,142.784484 232.91875,146.240949 C238.276763,149.097449 244.770946,149.128471 249.431366,152.398183 C254.743707,156.125159 254.492199,162.024911 256,168.283898 L234.879518,174 Z" id="Fill-39" fill="#F7A588" transform="translate(227.500000, 158.500000) scale(-1, 1) translate(-227.500000, -158.500000) "></path>
                    <path d="M208.667734,164 C208.62036,164 208.57174,163.995209 208.523743,163.985028 C208.164078,163.908969 207.93656,163.567005 208.015723,163.221448 C208.392842,161.574511 210.537745,160.517477 212.698231,160.913341 C215.778763,161.477492 220.629572,162.047631 223.999332,161.970974 C226.788765,161.906294 230.677765,160.527059 234.438357,159.193939 C235.291082,158.890902 236.173727,158.578284 237.029569,158.285428 C241.378592,156.798993 245.935809,155.925218 249.799875,159.566446 C250.062923,159.814385 250.067287,160.219831 249.809225,160.472561 C249.551164,160.725291 249.128541,160.729483 248.865493,160.481544 C245.710784,157.508673 242.031226,157.936877 237.476502,159.493382 C236.62814,159.783243 235.749858,160.094663 234.90025,160.395903 C231.03743,161.766155 227.043086,163.18252 224.031122,163.251991 C220.563498,163.332841 215.596125,162.748328 212.448273,162.172199 C210.896164,161.888327 209.515472,162.636935 209.318498,163.496936 C209.249931,163.79578 208.973793,164 208.667734,164" id="Fill-41" fill="#CD5649" transform="translate(229.000000, 160.500000) scale(-1, 1) translate(-229.000000, -160.500000) "></path>
                    <path d="M251.351905,158 C251.329473,158 251.306435,157.998642 251.283396,157.995925 C247.143159,157.51028 238.91846,155.990178 234.353225,153.373809 C234.034326,153.191098 233.908221,152.753678 234.071308,152.395728 C234.234396,152.038456 234.625442,151.897178 234.944341,152.079889 C239.348308,154.603204 247.646365,156.107684 251.418595,156.550537 C251.775084,156.59197 252.033962,156.949921 251.996373,157.348625 C251.961209,157.722198 251.679899,158 251.351905,158" id="Fill-43" fill="#CD5649" transform="translate(243.000000, 155.000000) scale(-1, 1) translate(-243.000000, -155.000000) "></path>
                    <path d="M253.928197,161 C251.923574,161 245.978641,160.257566 243.081515,159.427986 C242.119467,159.153036 241.244046,158.805801 240.397297,158.470726 C238.308487,157.643173 236.658913,156.989913 234.918442,157.847866 C234.589015,158.010674 234.203464,157.846515 234.056442,157.481716 C233.91003,157.116917 234.058272,156.689291 234.387699,156.527158 C236.605839,155.433437 238.661096,156.247479 240.837143,157.109486 C241.656439,157.433751 242.503188,157.769502 243.407892,158.028239 C246.904086,159.02941 253.529224,159.636732 254.199059,159.553639 C254.533976,159.466493 254.874384,159.683346 254.973212,160.052874 C255.07509,160.435237 254.877434,160.837867 254.532146,160.950685 C254.429047,160.984462 254.22041,161 253.928197,161" id="Fill-45" fill="#CD5649" transform="translate(244.500000, 158.500000) scale(-1, 1) translate(-244.500000, -158.500000) "></path>
                    <path d="M221.233186,180 C220.884609,180 220.568956,179.776688 220.487359,179.44672 L219,173.435305 L220.741456,173.022012 C221.152305,172.925354 221.56888,173.155999 221.672666,173.537961 C221.777167,173.919258 221.529513,174.307887 221.11938,174.40521 L220.829495,174.47387 L221.980445,179.126752 C222.074925,179.510048 221.817966,179.893344 221.405685,179.981335 C221.347708,179.994001 221.290447,180 221.233186,180" id="Fill-47" fill="#919090" transform="translate(220.500000, 176.500000) scale(-1, 1) translate(-220.500000, -176.500000) "></path>
                    <path d="M198.416882,174 C198.164217,174 197.9317,173.816573 197.857643,173.534191 L196.81431,169.559131 L196.726639,169.58387 C196.414619,169.67136 196.097699,169.463194 196.018196,169.117458 C195.938694,168.771722 196.127104,168.420555 196.439123,168.332462 L197.619136,168 L198.976667,173.173974 C199.066515,173.516693 198.888996,173.874497 198.579699,173.974055 C198.52579,173.991553 198.470792,174 198.416882,174" id="Fill-49" fill="#919090" transform="translate(197.500000, 171.000000) scale(-1, 1) translate(-197.500000, -171.000000) "></path>
                    <g id="Group-53" transform="translate(56.000000, 141.000000) scale(-1, 1) translate(-56.000000, -141.000000) translate(17.000000, 80.000000)">
                        <mask id="mask-2" fill="white">
                            <use xlink:href="#path-1"></use>
                        </mask>
                        <g id="Clip-52"></g>
                        <path d="M2.86916435,6.26461519 C6.92661605,0.767181145 14.888018,-1.9511996 22.1201311,1.59720674 C29.996324,5.46148567 34.5775604,18.6017854 34.9804235,33.2551461 C35.1721438,40.2256098 37.7866814,45.9163203 43.6072074,49.4034286 C49.4283599,52.8899114 69.4280381,58.8214357 74.8776543,72.4790159 C88.4785131,106.561981 54.5728528,127.172511 32.3527286,120.870697 C17.5138333,116.661773 7.2893808,108.021875 3.02078623,95.2374796 C-1.24843487,82.4524583 -0.396344953,60.0517751 1.92058778,53.6010938 L2.86916435,6.26461519 Z" id="Fill-51" fill="#394D6B" mask="url(#mask-2)"></path>
                    </g>
                    <path d="M95.9343202,268 C96.8617165,256.242705 96.9804532,244.172275 96.4786343,239.848633 C95.8005852,234.000734 94.6757111,229.961361 93.5933322,226.496171 L93.5933322,226.496171 C79.9229867,240.814393 65.5764669,249.087046 55.9669171,245.664528 C44.448206,241.562402 34,178.995093 34,178.995093 L60.1195775,172.291879 L68.4673935,201.019941 C68.4673935,201.019941 80.0473478,184.664775 84.7118259,178.634894 C90.0562279,171.725224 98.2615598,164.55576 112.603705,164.176107 L118.6824,160.808185 L123.995556,172.321373 L152.048667,159.541841 L157.561175,164.167322 C157.561175,164.167322 183.123315,138.307046 185.261201,134.852525 L188.087759,81.1740979 L216.070878,80 C216.070878,80 222.790126,129.773344 220.538503,144.151807 C215.732791,161.262512 176.465935,196.745245 172.392015,206.270436 L172.392015,206.270436 C171.463994,218.37789 171.067789,230.140205 171.395877,241.478314 C171.698343,251.947301 172.736352,260.738289 173.536887,267.659254 L95.9343202,268 Z" id="Fill-54" fill="#F28473" transform="translate(127.500000, 174.000000) scale(-1, 1) translate(-127.500000, -174.000000) "></path>
                    <path d="M84.7213198,104.485932 C81.6457208,97.0225028 81.558822,83.8513425 94.1281216,83.2405566 C102.192336,77.4337284 122.295767,74.8522234 132.917291,84.0557688 C140.956056,91.0212203 143.999378,99.693756 144,106.646742 C144.001861,115.448914 140.869778,133.681495 121.159875,138 L84.7213198,104.485932 Z" id="Fill-56" fill="#394D6B" transform="translate(113.500000, 108.000000) scale(-1, 1) translate(-113.500000, -108.000000) "></path>
                    <path d="M81.6859747,136 C81.4784485,136 81.2734844,135.907728 81.1383362,135.733226 C80.9103136,135.43695 80.9705218,135.015761 81.2722034,134.792299 C87.4115198,130.246471 88.7982303,127.804705 90.7172071,124.424522 C90.8927076,124.115692 91.0720513,123.799958 91.259081,123.474807 C94.7364257,117.437556 94.8023986,110.468166 94.5321021,106.851339 C94.0337831,100.168809 92.3428289,91.5535805 83.6241669,84.1799492 C83.3378576,83.9376557 83.3058319,83.5139559 83.5530699,83.2327448 C83.8003079,82.9521614 84.2332947,82.9207762 84.5196039,83.1630697 C88.4549154,86.4911529 91.2834205,90.2523515 93.1671691,94.6625953 C94.6800606,98.2047253 95.5479556,102.046898 95.8995972,106.753417 C96.1807824,110.521521 96.1071234,117.790326 92.4529971,124.134523 C92.2672484,124.457791 92.0891858,124.771642 91.9149663,125.077962 C89.9140039,128.601261 88.4683662,131.147853 82.0984651,135.864416 C81.9748461,135.955433 81.8300901,136 81.6859747,136" id="Fill-58" fill="#FEFEFE" transform="translate(88.500000, 109.500000) scale(-1, 1) translate(-88.500000, -109.500000) "></path>
                    <path d="M140.45393,120.297223 C127.18548,116.562121 115.70998,104.366278 110.550233,92 C105.085592,95.6671803 104.151777,101.397818 102.891465,104.870664 L102.891465,104.870664 C100.978779,110.6252 98.9192005,118.451369 97.4916294,126.177542 C95.3184871,137.94258 100.601673,143.573221 108.375239,145.672526 C109.368923,145.941071 110.378653,146.135405 111.397641,146.2593 C111.272351,153.31694 110.529866,157.397943 109.223882,161.383353 L114.052195,172 L140.483555,159.781516 C138.234498,153.154681 138.217216,143.649319 139.10968,134.154649 C143.180078,135.350838 147.038162,132.761611 147.85471,128.796327 C148.554609,125.395805 146.666611,121.912896 143.466456,120.713562 C142.440062,120.328669 141.459957,120.199113 140.45393,120.297223" id="Fill-60" fill="#F7A588" transform="translate(122.500000, 132.000000) scale(-1, 1) translate(-122.500000, -132.000000) "></path>
                    <path d="M131.823425,135 C130.234079,135 128.631851,134.700033 127.34921,134.066958 C127.02901,133.90869 126.906941,133.539016 127.076242,133.240762 C127.246157,132.941938 127.643033,132.828236 127.963847,132.986504 C130.646291,134.310932 135.294715,133.906976 136.844189,132.214588 C137.079739,131.957473 137.493791,131.927191 137.769826,132.146596 C138.045247,132.365429 138.078371,132.751673 137.842821,133.008216 C136.663847,134.296076 134.258664,135 131.823425,135" id="Fill-64" fill="#CD5649" transform="translate(132.500000, 133.500000) scale(-1, 1) translate(-132.500000, -133.500000) "></path>
                    <path d="M105.001613,188 L97.0796755,173.215235 C96.9058864,172.89124 97.0258689,172.486869 97.3474715,172.311787 C97.6690741,172.136705 98.0704589,172.258203 98.244248,172.582198 L105.376404,185.892163 L129.901075,164.165804 C130.175674,163.922808 130.593757,163.950223 130.834959,164.226242 C131.07678,164.502884 131.049567,164.924077 130.774968,165.167074 L105.001613,188 Z" id="Fill-66" fill="#BD2025" transform="translate(114.000000, 176.000000) scale(-1, 1) translate(-114.000000, -176.000000) "></path>
                    <path d="M132.435209,182 L132.000215,164.684334 C131.991051,164.315902 132.276363,164.009811 132.637432,164.00046 C132.997891,163.986745 133.298476,164.281615 133.30764,164.650047 L133.676652,179.363625 L142.950821,172.181389 C143.238577,171.958834 143.648522,172.015563 143.86663,172.309187 C144.085349,172.60281 144.029142,173.021114 143.741386,173.243669 L132.435209,182 Z" id="Fill-68" fill="#BD2025" transform="translate(138.000000, 173.000000) scale(-1, 1) translate(-138.000000, -173.000000) "></path>
                    <g id="Group-163" transform="translate(216.000000, 54.909864)">
                        <rect id="Rectangle" fill="#EFC778" x="0" y="0.090136364" width="9" height="8.77439627" rx="4.38719813"></rect>
                        <text id="1" font-family="Nunito-Bold, Nunito" font-size="5.26029374" font-weight="bold" line-spacing="9.20551405" fill="#002D6B">
                            <tspan x="3.34285714" y="5">1</tspan>
                        </text>
                    </g>
                    <g id="Group-163-Copy" transform="translate(278.000000, 73.000000)">
                        <rect id="Rectangle" fill="#EFC778" x="0" y="0" width="16" height="16" rx="8"></rect>
                        <text id="2" font-family="Nunito-Bold, Nunito" font-size="8.76715624" font-weight="bold" line-spacing="15.3425234" fill="#002D6B">
                            <tspan x="5.94285714" y="9.55756397">2</tspan>
                        </text>
                    </g>
                    <g id="Group-163-Copy-2" transform="translate(200.000000, 105.000000)">
                        <rect id="Rectangle" fill="#EFC778" x="0" y="0" width="22" height="21.9460123" rx="10.9730062"></rect>
                        <text id="3" font-family="Nunito-Bold, Nunito" font-size="12.2740187" font-weight="bold" line-spacing="21.4795328" fill="#002D6B">
                            <tspan x="8.17142857" y="12.5468225">3</tspan>
                        </text>
                    </g>
                    <g id="Group-52" transform="translate(0.000000, 153.000000)">
                        <path d="M53.8183146,63.9525863 C53.8544372,63.9878054 53.822926,64.0360401 53.7983319,64.0804467 C49.6857311,71.5101258 33.6910881,69.9061297 25.0892888,68.4338221 C22.656775,66.7831226 21.1565327,66.5587928 20.6546586,65.6285517 C24.2723024,60.6014213 36.481754,47.0780884 53.8183146,63.9525863" id="Fill-1" fill="#A8D2D9"></path>
                        <path d="M45.912222,46.8131036 C45.9045363,46.8467914 45.9445018,46.8674634 45.9698645,46.8444945 C57.5998168,36.2994645 62.4294904,32.6795631 62.0905524,22.8978669 C61.7078062,11.8651302 57.3669411,8.0515243 57.3669411,8.0515243 C57.3669411,8.0515243 44.9107795,14.6359473 43.5773161,23.9429526 C42.4982484,31.4668043 46.8606334,42.7552616 45.912222,46.8131036" id="Fill-3" fill="#A8D2D9"></path>
                        <path d="M46.9098985,47.9196695 C47.0274892,47.8676066 47.0928174,47.7443401 47.0105808,47.6448081 C39.646174,38.7543058 31.5385632,35.4230472 23.8336813,36.2951004 C14.2281339,37.3830615 8.42314907,50.8987381 8.42314907,50.8987381 C8.42314907,50.8987381 34.2124069,53.5562418 46.9098985,47.9196695" id="Fill-5" fill="#A8D2D9"></path>
                        <path d="M56.9384651,79.5547594 C57.0014876,79.4720713 56.9461508,79.3817269 56.8662198,79.3158827 C50.5624352,74.1042353 43.055075,73.4480899 36.9126894,74.1945797 C39.6172759,75.9677802 47.6134445,82.0507151 50.105138,85.5841002 C54.2039046,82.9824875 56.4173768,80.2445926 56.9384651,79.5547594" id="Fill-11" fill="#A8D2D9"></path>
                        <path d="M56.6981343,100.069678 C56.6673916,100.069678 56.6366489,100.068146 56.6059063,100.064318 C56.1878059,100.013787 55.8903706,99.6355651 55.9403274,99.2198277 C59.1221939,72.8928546 51.0030545,48.7372098 31.8080995,27.4228201 C31.5268041,27.1112085 31.5529354,26.6303925 31.8665106,26.3509373 C32.1800858,26.0707165 32.6619772,26.096748 32.9432726,26.4091253 C42.32363,36.8255293 49.183857,48.1216429 53.3325804,59.9827918 C57.7141795,72.5115706 59.100674,85.7738235 57.4536354,99.4012822 C57.4075214,99.7863943 57.0785748,100.069678 56.6981343,100.069678" id="Fill-13" fill="#6DB4C0"></path>
                        <path d="M35.024244,30.0341564 C5.11777398,33.8975283 6.39513194,0 6.39513194,0 C6.39513194,0 38.5073886,9.52521004 35.024244,30.0341564" id="Fill-15" fill="#A8D2D9"></path>
                        <path d="M45.1179851,116 C45.0803253,116 45.041897,115.996937 45.0034686,115.991578 C36.5622998,114.724459 29.1256478,112.136628 22.900257,108.300819 C16.0031388,104.050804 10.5278692,98.2235892 6.62508712,90.9799583 C0.590300866,79.7780173 -1.25502794,68.3410277 0.817028062,54.9876648 C0.862373502,54.6936626 1.05220949,54.4540203 1.3250507,54.346832 C1.6117261,54.2335186 1.94220981,54.2901753 2.20890248,54.4984268 C7.81867131,58.8770681 14.9432852,62.3124525 22.4859995,65.9499634 C28.7244559,68.9581259 35.1758054,72.068883 40.6956519,75.7699412 C46.8680116,79.9089401 51.655414,85.4873245 54.5406137,91.9025431 C57.6010465,98.7074677 58.5363923,106.227491 57.3189825,114.253597 C57.25596,114.667803 56.8670653,114.953383 56.4512706,114.890601 C56.035476,114.828585 55.7488006,114.441176 55.8118231,114.02697 C58.1113749,98.8605939 52.2917873,85.3763081 39.8440799,77.0301691 C34.4141557,73.3888301 28.0127631,70.3018076 21.8219578,67.316614 C14.9071626,63.9830584 7.7702516,60.541549 2.15433424,56.3680967 C0.41353051,68.8884536 2.27115639,79.6869073 7.96854183,90.2617968 C15.2161264,103.714692 27.7529876,111.866361 45.2309644,114.489411 C45.646759,114.552193 45.9334344,114.938836 45.870412,115.353808 C45.813538,115.729732 45.4884343,116 45.1179851,116" id="Fill-17" fill="#919090"></path>
                        <path d="M55.2098047,115.238504 C54.8939238,115.238504 54.5987942,115.041737 54.4896577,114.727828 C51.2962628,105.557871 47.6255879,96.664306 37.9078297,88.6619352 C35.2708771,86.4906068 31.5271884,84.0681517 27.5636896,81.5032892 C17.0981159,74.7312868 4.07398345,66.3032254 1.30330026,56.0131504 C1.19416377,55.6081318 1.43549374,55.1916288 1.84206556,55.0829092 C2.24863738,54.9749553 2.6667377,55.2145977 2.77587418,55.6196162 C5.39514972,65.3469528 18.1472095,73.5989191 28.3945102,80.2300456 C32.3956688,82.8194082 36.1747116,85.2648323 38.8785295,87.491286 C48.9006401,95.7447836 52.6627745,104.848897 55.9299518,114.230168 C56.0682938,114.626765 55.8577065,115.059346 55.4595889,115.196394 C55.3765837,115.224722 55.2928099,115.238504 55.2098047,115.238504" id="Fill-19" fill="#919090"></path>
                        <path d="M278.419026,115.999847 L2.89693752,115.999847 C2.57599641,115.999847 2.31596383,115.659907 2.31596383,115.240341 C2.31596383,114.821541 2.57599641,114.480836 2.89693752,114.480836 L278.419026,114.480836 C278.739967,114.480836 279,114.821541 279,115.240341 C279,115.659907 278.739967,115.999847 278.419026,115.999847" id="Fill-53" fill="#394D6B"></path>
                    </g>
                </g>
            </g>
        </g>
    </g>
</svg>